<svg version="1.1" xmlns="http://www.w3.org/2000/svg" xmlns:xlink="http://www.w3.org/1999/xlink" width="139.65504" height="121.76744" viewBox="0,0,139.65504,121.76744"><g transform="translate(-170.87016,-126.00118)"><g data-paper-data="{&quot;isPaintingLayer&quot;:true}" fill-rule="nonzero" stroke-linecap="butt" stroke-linejoin="miter" stroke-miterlimit="10" stroke-dasharray="" stroke-dashoffset="0" style="mix-blend-mode: normal"><path d="M294.69741,236.34014l-4.12359,0.06028l-1.34875,-92.26533l4.12359,-0.06028z" fill="#96939c" stroke="none" stroke-width="0"/><path d="M190.20517,237.01069l-4.12359,0.06028l-1.34876,-92.26534l4.12359,-0.06028z" fill="#96939c" stroke="none" stroke-width="0"/><path d="M176.02519,213.22986v-70.62403h122.17442v70.62403z" fill="#96939c" stroke="none" stroke-width="0"/><path d="M193.55233,232.3035v-4.12403h92.27519v4.12403z" fill="#96939c" stroke="none" stroke-width="0"/><path d="M170.87016,233.59226c0,-7.82939 6.34697,-14.17636 14.17636,-14.17636c7.82939,0 14.17636,6.34697 14.17636,14.17636c0,7.82939 -6.34697,14.17636 -14.17636,14.17636c-7.82939,0 -14.17636,-6.34697 -14.17636,-14.17636z" fill="#252426" stroke="none" stroke-width="0"/><path d="M279.48643,231.89071c0,-7.82939 6.34697,-14.17635 14.17635,-14.17635c7.82939,0 14.17636,6.34697 14.17636,14.17636c0,7.82939 -6.34697,14.17636 -14.17636,14.17636c-7.82939,0 -14.17635,-6.34697 -14.17635,-14.17635z" fill="#252426" stroke="none" stroke-width="0"/><path d="M265.10272,171.8849v-11.85658h11.85658v11.85658z" fill="#252427" stroke="none" stroke-width="0"/><path d="M264.43217,189.77249v-11.85658h11.85658v11.85658z" fill="#252427" stroke="none" stroke-width="0"/><path d="M182.31202,206.62908v-11.85658h11.85658v11.85658z" fill="#252427" stroke="none" stroke-width="0"/><path d="M280.10272,206.47405v-11.85658h11.85658v11.85658z" fill="#252427" stroke="none" stroke-width="0"/><path d="M279.94768,163.01668v-11.85658h11.85658v11.85658z" fill="#252427" stroke="none" stroke-width="0"/><path d="M197.82752,188.63684v-11.85658h11.85658v11.85658z" fill="#252427" stroke="none" stroke-width="0"/><path d="M198.70349,170.43916v-11.85658h11.85658v11.85658z" fill="#252427" stroke="none" stroke-width="0"/><path d="M180.50582,158.94304v-11.85658h11.85658v11.85658z" fill="#252427" stroke="none" stroke-width="0"/><path d="M291.49806,148.79188v-17.52713h17.52713v17.52713z" fill="#ccff00" stroke="#000000" stroke-width="3"/><path d="M285.15697,145.02831v-17.52713h17.52713v17.52713z" fill="#ccff00" stroke="#000000" stroke-width="3"/></g></g></svg>