<svg version="1.1" xmlns="http://www.w3.org/2000/svg" xmlns:xlink="http://www.w3.org/1999/xlink" width="139.65504" height="121.76744" viewBox="0,0,139.65504,121.76744"><g transform="translate(-169.37015,-126.00118)"><g data-paper-data="{&quot;isPaintingLayer&quot;:true}" fill-rule="nonzero" stroke-linecap="butt" stroke-linejoin="miter" stroke-miterlimit="10" stroke-dasharray="" stroke-dashoffset="0" style="mix-blend-mode: normal"><path d="M186.54669,144.07481l4.12359,0.06028l-1.34875,92.26534l-4.12359,-0.06028z" data-paper-data="{&quot;index&quot;:null}" fill="#96939c" stroke="none" stroke-width="0"/><path d="M291.03894,144.74535l4.12359,0.06028l-1.34875,92.26534l-4.12359,-0.06028z" data-paper-data="{&quot;index&quot;:null}" fill="#96939c" stroke="none" stroke-width="0"/><path d="M181.69574,213.22986v-70.62403h122.17442v70.62403z" data-paper-data="{&quot;index&quot;:null}" fill="#96939c" stroke="none" stroke-width="0"/><path d="M194.06783,232.30351v-4.12403h92.2752v4.12403z" data-paper-data="{&quot;index&quot;:null}" fill="#96939c" stroke="none" stroke-width="0"/><path d="M294.84884,247.76862c-7.82939,0 -14.17636,-6.34697 -14.17636,-14.17635c0,-7.82939 6.34697,-14.17635 14.17636,-14.17635c7.82939,0 14.17636,6.34697 14.17636,14.17636c0,7.82939 -6.34697,14.17636 -14.17635,14.17636z" data-paper-data="{&quot;index&quot;:null}" fill="#252426" stroke="none" stroke-width="0"/><path d="M186.23256,246.06707c-7.82939,0 -14.17636,-6.34697 -14.17636,-14.17635c0,-7.82939 6.34698,-14.17635 14.17636,-14.17635c7.82939,0 14.17636,6.34697 14.17636,14.17636c0,7.82939 -6.34697,14.17636 -14.17635,14.17636z" data-paper-data="{&quot;index&quot;:null}" fill="#252426" stroke="none" stroke-width="0"/><path d="M202.93605,171.8849v-11.85658h11.85658v11.85658z" data-paper-data="{&quot;index&quot;:null}" fill="#252427" stroke="none" stroke-width="0"/><path d="M203.60659,189.7725v-11.85658h11.85659v11.85658z" data-paper-data="{&quot;index&quot;:null}" fill="#252427" stroke="none" stroke-width="0"/><path d="M285.72675,206.62909v-11.85658h11.85659v11.85658z" data-paper-data="{&quot;index&quot;:null}" fill="#252427" stroke="none" stroke-width="0"/><path d="M187.93605,206.47405v-11.85658h11.85658v11.85658z" data-paper-data="{&quot;index&quot;:null}" fill="#252427" stroke="none" stroke-width="0"/><path d="M188.09109,163.01668v-11.85658h11.85658v11.85658z" data-paper-data="{&quot;index&quot;:null}" fill="#252427" stroke="none" stroke-width="0"/><path d="M270.21125,188.63684v-11.85658h11.85658v11.85658z" data-paper-data="{&quot;index&quot;:null}" fill="#252427" stroke="none" stroke-width="0"/><path d="M269.33528,170.43916v-11.85658h11.85658v11.85658z" data-paper-data="{&quot;index&quot;:null}" fill="#252427" stroke="none" stroke-width="0"/><path d="M287.53295,158.94304v-11.85658h11.85658v11.85658z" data-paper-data="{&quot;index&quot;:null}" fill="#252427" stroke="none" stroke-width="0"/><path d="M170.87016,148.79188v-17.52713h17.52713v17.52713z" data-paper-data="{&quot;index&quot;:null}" fill="#ccff00" stroke="#000000" stroke-width="3"/><path d="M177.21124,145.02831v-17.52713h17.52713v17.52713z" data-paper-data="{&quot;index&quot;:null}" fill="#ccff00" stroke="#000000" stroke-width="3"/></g></g></svg>