<svg version="1.1" xmlns="http://www.w3.org/2000/svg" xmlns:xlink="http://www.w3.org/1999/xlink" width="557.55556" height="426.92492" viewBox="0,0,557.55556,426.92492"><g transform="translate(44.5,28.50751)"><g data-paper-data="{&quot;isPaintingLayer&quot;:true}" fill-rule="nonzero" stroke-linecap="butt" stroke-linejoin="miter" stroke-miterlimit="10" stroke-dasharray="" stroke-dashoffset="0" style="mix-blend-mode: normal"><path d="M-43.5,397.41742v-424.92492h555.55556v424.92492z" fill="#544f5e" stroke="#000000" stroke-width="2"/><text transform="translate(20.69193,336.85084) rotate(-6.50681) scale(1.50859,1.50859)" font-size="40" xml:space="preserve" fill="#00ff05" fill-rule="nonzero" stroke="none" stroke-width="1" stroke-linecap="butt" stroke-linejoin="miter" stroke-miterlimit="10" stroke-dasharray="" stroke-dashoffset="0" font-family="Pixel" font-weight="normal" text-anchor="start" style="mix-blend-mode: normal"><tspan x="0" dy="0">Grocery Grab!</tspan></text><text transform="translate(345.38889,329.84985) scale(0.5,0.5)" font-size="40" xml:space="preserve" fill="#00ff05" fill-rule="nonzero" stroke="none" stroke-width="1" stroke-linecap="butt" stroke-linejoin="miter" stroke-miterlimit="10" stroke-dasharray="" stroke-dashoffset="0" font-family="Pixel" font-weight="normal" text-anchor="start" style="mix-blend-mode: normal"><tspan x="0" dy="0">Press Space</tspan></text><g><path d="M302.66834,237.13545l-4.06293,0.70726l-15.825,-90.90809l4.06293,-0.70726z" fill="#96939c" stroke="none" stroke-width="0"/><path d="M199.57859,254.21126l-4.06293,0.70726l-15.825,-90.90809l4.06293,-0.70726z" fill="#96939c" stroke="none" stroke-width="0"/><path d="M181.83917,232.95303l-11.09359,-69.7473l120.65774,-19.19109l11.09359,69.7473z" fill="#96939c" stroke="none" stroke-width="0"/><path d="M202.1448,249.03674l-0.6478,-4.07283l91.12969,-14.49454l0.6478,4.07283z" fill="#96939c" stroke="none" stroke-width="0"/><path d="M179.94664,253.87241c-1.22984,-7.73219 4.04136,-14.99735 11.77355,-16.22718c7.73219,-1.22984 14.99735,4.04136 16.22719,11.77355c1.22984,7.73219 -4.04137,14.99735 -11.77356,16.22718c-7.73219,1.22984 -14.99735,-4.04136 -16.22718,-11.77355z" fill="#252426" stroke="none" stroke-width="0"/><path d="M286.94728,235.13059c-1.22984,-7.73219 4.04136,-14.99735 11.77355,-16.22718c7.73219,-1.22984 14.99735,4.04136 16.22719,11.77355c1.22984,7.73219 -4.04137,14.99735 -11.77356,16.22718c-7.73219,1.22984 -14.99735,-4.04136 -16.22718,-11.77355z" fill="#252426" stroke="none" stroke-width="0"/><path d="M263.31644,178.12908l-1.86243,-11.7094l11.7094,-1.86243l1.86243,11.7094z" fill="#252427" stroke="none" stroke-width="0"/><path d="M265.464,195.89995l-1.86243,-11.7094l11.7094,-1.86243l1.86243,11.7094z" fill="#252427" stroke="none" stroke-width="0"/><path d="M187.01111,225.44667l-1.86243,-11.7094l11.7094,-1.86243l1.86243,11.7094z" fill="#252427" stroke="none" stroke-width="0"/><path d="M283.56347,209.93264l-1.86243,-11.7094l11.7094,-1.86243l1.86243,11.7094z" fill="#252427" stroke="none" stroke-width="0"/><path d="M276.5841,167.03911l-1.86243,-11.7094l11.7094,-1.86243l1.86243,11.7094z" fill="#252427" stroke="none" stroke-width="0"/><path d="M199.50778,205.24061l-1.86243,-11.7094l11.7094,-1.86243l1.86243,11.7094z" fill="#252427" stroke="none" stroke-width="0"/><path d="M197.5144,187.13124l-1.86243,-11.7094l11.7094,-1.86243l1.86243,11.7094z" fill="#252427" stroke="none" stroke-width="0"/><path d="M177.73683,178.63632l-1.86243,-11.7094l11.7094,-1.86243l1.86243,11.7094z" fill="#252427" stroke="none" stroke-width="0"/><path d="M285.75667,151.17657l-2.75315,-17.30955l17.30955,-2.75315l2.75315,17.30955z" fill="#ccff00" stroke="#000000" stroke-width="3"/><path d="M278.90312,148.45578l-2.75315,-17.30955l17.30955,-2.75315l2.75315,17.30955z" fill="#ccff00" stroke="#000000" stroke-width="3"/></g></g></g></svg>